<svg xmlns="http://www.w3.org/2000/svg" width="752" height="336" id="svgcontent" overflow="visible" x="752" y="336"
     viewBox="0 0 752 336">
    <title>Firestore Index Manager Logo</title>
    <g style="pointer-events:all">
        <title style="pointer-events:inherit">Layer 1</title>
        <g fill="#ffffff" id="SvgjsG1133" style="pointer-events:inherit"></g>
        <g transform="matrix(1.4444444444444444,0,0,1.4444444444444444,260.77777777777777,22.77777777777778) "
           fill="#000000" id="SvgjsG1134" style="pointer-events:inherit">
            <path id="svg_1"
                  d="M79.76923,18.15385C54.86923,18.15385 34.76923,38.25385 34.76923,63.15385C34.76923,88.05385 54.86923,108.15385 79.76923,108.15385S124.76923,88.05385 124.76923,63.15385C124.76923,38.25385 104.66923,18.15385 79.76923,18.15385zM79.76923,95.65385C65.16923,95.65385 53.36923,83.85385 53.36923,69.25385C53.36923,60.55385 59.76923,56.55385 59.66923,44.75385C68.56923,47.25385 70.16923,54.45385 69.66923,59.05385C76.06923,51.55385 75.76923,42.95385 75.76923,30.65385C96.16923,38.35385 91.36923,60.45385 91.96923,67.25385C97.06923,63.05385 98.06923,53.05385 98.06923,53.05385C103.46923,55.85385 106.16923,63.25385 106.16923,69.35385C106.16923,83.85385 94.36923,95.65385 79.76923,95.65385z"
                  style="pointer-events:inherit"></path>
        </g>
        <g transform="matrix(3.0120478928299974,0,0,3.0120478928299974,-5.481926245746527,193.2530143669681) "
           fill="#000000" id="SvgjsG1135" style="pointer-events:inherit">
            <path fill="black" id="svg_2"
                  d="M24.87201,9.84L24.87201,11.64L17.89201,11.64L17.89201,16.08L24.39201,16.08L24.39201,17.88L17.89201,17.88L17.89201,24L15.97201,24L15.97201,9.84L24.87201,9.84zM28.03201,9.8Q28.57201,9.8 28.96201,10.19T29.35201,11.12Q29.35201,11.68 28.95201,12.06T28.03201,12.44Q27.47201,12.44 27.09201,12.06T26.71201,11.12T27.11201,10.18T28.03201,9.8zM28.93201,14.52L28.93201,24L27.13201,24L27.13201,14.52L28.93201,14.52zM36.47201,14.28Q36.97201,14.28 37.27201,14.4L37.19201,16.34Q36.67201,16.2 36.29201,16.2Q33.63201,16.2 33.59201,19.16L33.59201,24L31.79201,24L31.79201,14.52L33.59201,14.52L33.59201,15.98L33.63201,15.98Q33.99201,15.22 34.79201,14.75T36.47201,14.28zM43.53201,14.28Q45.71201,14.28 46.92201,15.65T48.15201,19.42L48.15201,19.92L40.55201,19.92Q40.55201,21.08 41.48201,21.87T43.75201,22.68Q45.23201,22.68 46.35201,21.26L47.71201,22.3Q46.19201,24.24 43.51201,24.24Q41.33201,24.24 40.00201,22.85T38.63201,19.26Q38.63201,17.14 40.00201,15.73T43.53201,14.28zM46.23201,18.48Q46.19201,17.14 45.47201,16.43T43.49201,15.72Q42.65201,15.72 41.98201,16.13T40.93201,17.19T40.55201,18.48L46.23201,18.48zM53.51201,14.28Q54.59201,14.28 55.44201,14.68T56.75201,15.84L55.35201,16.9Q54.55201,15.96 53.41201,15.96Q52.73201,15.96 52.28201,16.26T51.83201,17.02Q51.83201,18.02 53.69201,18.38Q55.51201,18.72 56.26201,19.38T57.01201,21.26Q57.01201,22.64 55.96201,23.43T53.15201,24.24Q51.83201,24.24 50.98201,23.83T49.51201,22.56L50.87201,21.44Q51.95201,22.56 53.17201,22.56Q53.97201,22.56 54.53201,22.24T55.09201,21.36Q55.09201,20.38 53.29201,20Q51.29201,19.6 50.60201,18.93T49.91201,17.2Q49.91201,15.88 50.93201,15.09T53.51201,14.28zM61.69201,11.86L61.69201,14.52L64.27201,14.52L64.27201,16.08L61.69201,16.08L61.69201,20.64Q61.69201,21.56 61.95201,22.06T63.05201,22.56Q63.85201,22.56 64.33201,22.28L64.33201,23.92Q63.81201,24.2 62.69201,24.24Q61.61201,24.24 61.02201,23.91T60.16201,22.99T59.89201,21.14L59.89201,16.08L57.81201,16.08L57.81201,14.52L59.89201,14.52L59.89201,11.86L61.69201,11.86zM71.17201,14.28Q73.27201,14.28 74.73201,15.73T76.21201,19.26Q76.21201,21.36 74.75201,22.78T71.17201,24.24Q69.09201,24.24 67.63201,22.8T66.13201,19.26Q66.13201,17.2 67.58201,15.76T71.17201,14.28zM68.05201,19.26Q68.05201,20.72 68.91201,21.63T71.17201,22.56Q72.59201,22.56 73.43201,21.65T74.29201,19.26Q74.29201,17.8 73.45201,16.89T71.15201,15.96Q69.73201,15.96 68.89201,16.9T68.05201,19.26zM83.15201,14.28Q83.65201,14.28 83.95201,14.4L83.87201,16.34Q83.35201,16.2 82.97201,16.2Q80.31201,16.2 80.27201,19.16L80.27201,24L78.47201,24L78.47201,14.52L80.27201,14.52L80.27201,15.98L80.31201,15.98Q80.67201,15.22 81.47201,14.75T83.15201,14.28zM90.21201,14.28Q92.39201,14.28 93.60201,15.65T94.83201,19.42L94.83201,19.92L87.23201,19.92Q87.23201,21.08 88.16201,21.87T90.43201,22.68Q91.91201,22.68 93.03201,21.26L94.39201,22.3Q92.87201,24.24 90.19201,24.24Q88.01201,24.24 86.68201,22.85T85.31201,19.26Q85.31201,17.14 86.68201,15.73T90.21201,14.28zM92.91201,18.48Q92.87201,17.14 92.15201,16.43T90.17201,15.72Q89.33201,15.72 88.66201,16.13T87.61201,17.19T87.23201,18.48L92.91201,18.48zM104.93201,9.84L104.93201,24L103.01201,24L103.01201,9.84L104.93201,9.84zM113.07201,14.28Q114.67201,14.28 115.58201,15.24T116.51201,17.82L116.51201,24L114.71201,24L114.71201,18.34Q114.71201,17.24 114.14201,16.6T112.55201,15.96Q111.29201,15.96 110.60201,16.8T109.91201,19.04L109.91201,24L108.11201,24L108.11201,14.52L109.91201,14.52L109.91201,15.98L109.95201,15.98Q110.33201,15.18 111.18201,14.73T113.07201,14.28zM128.73201,8.88L128.73201,24L126.93201,24L126.93201,22.64L126.89201,22.64Q126.37201,23.4 125.48201,23.82T123.59201,24.24Q121.45201,24.22 120.12201,22.82T118.77201,19.26Q118.77201,17.08 120.10201,15.7T123.59201,14.28Q124.57201,14.28 125.47201,14.7T126.89201,15.88L126.93201,15.88L126.93201,8.88L128.73201,8.88zM120.69201,19.26Q120.69201,20.72 121.55201,21.63T123.81201,22.56Q125.23201,22.56 126.08201,21.65T126.93201,19.26Q126.93201,17.8 126.09201,16.89T123.79201,15.96Q122.39201,15.96 121.54201,16.88T120.69201,19.26zM135.79201,14.28Q137.97201,14.28 139.18201,15.65T140.41201,19.42L140.41201,19.92L132.81201,19.92Q132.81201,21.08 133.74201,21.87T136.01201,22.68Q137.49201,22.68 138.61201,21.26L139.97201,22.3Q138.45201,24.24 135.77201,24.24Q133.59201,24.24 132.26201,22.85T130.89201,19.26Q130.89201,17.14 132.26201,15.73T135.79201,14.28zM138.49201,18.48Q138.45201,17.14 137.73201,16.43T135.75201,15.72Q134.91201,15.72 134.24201,16.13T133.19201,17.19T132.81201,18.48L138.49201,18.48zM144.13201,14.52L146.43201,17.88L148.69201,14.52L150.87201,14.52L147.63201,18.94L151.47201,24L149.15201,24L146.35201,20.02L143.55201,24L141.33201,24L145.17201,18.94L141.81201,14.52L144.13201,14.52zM161.69201,9.84L166.19201,20.56L166.27201,20.56L170.73201,9.84L173.59201,9.84L173.59201,24L171.67201,24L171.67201,12.36L171.63201,12.36L166.85201,24L165.57201,24L160.79201,12.36L160.75201,12.36L160.75201,24L158.83201,24L158.83201,9.84L161.69201,9.84zM180.43201,14.28Q182.23201,14.28 183.28201,15.1T184.39201,17.38L184.39201,22.46Q184.39201,23.18 184.47201,24L182.87201,24Q182.81201,23.36 182.81201,22.56L182.77201,22.56Q182.15201,23.48 181.34201,23.86T179.45201,24.24Q177.99201,24.24 177.08201,23.46T176.17201,21.4Q176.17201,19.78 177.53201,18.95T181.37201,18.12L182.71201,18.12L182.71201,17.78Q182.71201,16.82 182.08201,16.27T180.43201,15.72Q179.67201,15.72 179.10201,15.95T177.75201,16.8L176.67201,15.68Q178.21201,14.32 180.43201,14.28zM177.97201,21.26Q177.97201,22.8 180.01201,22.8Q181.23201,22.8 181.96201,22.07T182.71201,19.96L182.71201,19.44L181.69201,19.44Q179.93201,19.44 178.95201,19.89T177.97201,21.26zM191.97201,14.28Q193.57201,14.28 194.48201,15.24T195.41201,17.82L195.41201,24L193.61201,24L193.61201,18.34Q193.61201,17.24 193.04201,16.6T191.45201,15.96Q190.19201,15.96 189.50201,16.8T188.81201,19.04L188.81201,24L187.01201,24L187.01201,14.52L188.81201,14.52L188.81201,15.98L188.85201,15.98Q189.23201,15.18 190.08201,14.73T191.97201,14.28zM201.93201,14.28Q203.73201,14.28 204.78201,15.1T205.89201,17.38L205.89201,22.46Q205.89201,23.18 205.97201,24L204.37201,24Q204.31201,23.36 204.31201,22.56L204.27201,22.56Q203.65201,23.48 202.84201,23.86T200.95201,24.24Q199.49201,24.24 198.58201,23.46T197.67201,21.4Q197.67201,19.78 199.03201,18.95T202.87201,18.12L204.21201,18.12L204.21201,17.78Q204.21201,16.82 203.58201,16.27T201.93201,15.72Q201.17201,15.72 200.60201,15.95T199.25201,16.8L198.17201,15.68Q199.71201,14.32 201.93201,14.28zM199.47201,21.26Q199.47201,22.8 201.51201,22.8Q202.73201,22.8 203.46201,22.07T204.21201,19.96L204.21201,19.44L203.19201,19.44Q201.43201,19.44 200.45201,19.89T199.47201,21.26zM212.87201,14.28Q213.89201,14.28 214.77201,14.7T216.17201,15.88L216.21201,15.88L216.21201,14.52L218.01201,14.52L218.01201,24Q217.99201,26.1 216.57201,27.44T212.83201,28.8Q209.89201,28.8 208.19201,27.1L209.41201,25.58Q210.83201,27.12 212.81201,27.12Q214.51201,27.12 215.36201,26.25T216.21201,23.88L216.21201,22.44L216.15201,22.44Q215.67201,23.28 214.76201,23.7T212.87201,24.12Q210.79201,24.12 209.43201,22.73T208.05201,19.3Q208.07201,17.02 209.42201,15.66T212.87201,14.28zM209.97201,19.26Q209.97201,20.68 210.80201,21.54T213.09201,22.44Q214.53201,22.44 215.36201,21.58T216.21201,19.26Q216.21201,17.78 215.36201,16.88T213.07201,15.96Q211.65201,15.96 210.81201,16.9T209.97201,19.26zM225.07201,14.28Q227.25201,14.28 228.46201,15.65T229.69201,19.42L229.69201,19.92L222.09201,19.92Q222.09201,21.08 223.02201,21.87T225.29201,22.68Q226.77201,22.68 227.89201,21.26L229.25201,22.3Q227.73201,24.24 225.05201,24.24Q222.87201,24.24 221.54201,22.85T220.17201,19.26Q220.17201,17.14 221.54201,15.73T225.07201,14.28zM227.77201,18.48Q227.73201,17.14 227.01201,16.43T225.03201,15.72Q224.19201,15.72 223.52201,16.13T222.47201,17.19T222.09201,18.48L227.77201,18.48zM236.53201,14.28Q237.03201,14.28 237.33201,14.4L237.25201,16.34Q236.73201,16.2 236.35201,16.2Q233.69201,16.2 233.65201,19.16L233.65201,24L231.85201,24L231.85201,14.52L233.65201,14.52L233.65201,15.98L233.69201,15.98Q234.05201,15.22 234.85201,14.75T236.53201,14.28z"
                  style="pointer-events:inherit"></path>
        </g>
    </g>
</svg>